<svg xmlns="http://www.w3.org/2000/svg" xmlns:xlink="http://www.w3.org/1999/xlink" width="147" zoomAndPan="magnify" viewBox="0 0 110.25 30.000001" height="40" preserveAspectRatio="xMidYMid meet" version="1.0"><defs><g/><clipPath id="704758241a"><path d="M 6.484375 9.546875 L 39.144531 9.546875 L 39.144531 19.417969 L 6.484375 19.417969 Z M 6.484375 9.546875 " clip-rule="nonzero"/></clipPath><clipPath id="38a133a604"><path d="M 20 6.757812 L 24 6.757812 L 24 9 L 20 9 Z M 20 6.757812 " clip-rule="nonzero"/></clipPath><clipPath id="1e251dbd9b"><path d="M 17.703125 19.574219 L 26.460938 19.574219 L 26.460938 23.335938 L 17.703125 23.335938 Z M 17.703125 19.574219 " clip-rule="nonzero"/></clipPath></defs><g fill="#000000" fill-opacity="1"><g transform="translate(42.073863, 19.29001)"><g><path d="M 3.84375 0 L 0.125 0 L 0.125 -0.296875 C 0.382812 -0.304688 0.613281 -0.378906 0.8125 -0.515625 C 1.007812 -0.648438 1.109375 -0.882812 1.109375 -1.21875 L 1.109375 -9.859375 C 1.109375 -10.179688 1.007812 -10.414062 0.8125 -10.5625 C 0.613281 -10.707031 0.382812 -10.785156 0.125 -10.796875 L 0.125 -11.0625 L 3.84375 -11.0625 L 3.84375 -10.796875 C 3.582031 -10.785156 3.351562 -10.707031 3.15625 -10.5625 C 2.96875 -10.414062 2.875 -10.179688 2.875 -9.859375 L 2.875 -5.546875 L 6.046875 -8.515625 C 6.140625 -8.597656 6.273438 -8.710938 6.453125 -8.859375 C 6.628906 -9.003906 6.8125 -9.164062 7 -9.34375 C 7.1875 -9.519531 7.34375 -9.691406 7.46875 -9.859375 C 7.601562 -10.035156 7.671875 -10.191406 7.671875 -10.328125 C 7.671875 -10.535156 7.585938 -10.648438 7.421875 -10.671875 C 7.253906 -10.703125 7.039062 -10.722656 6.78125 -10.734375 L 6.78125 -11.0625 L 9.65625 -11.0625 L 9.65625 -10.78125 C 9.445312 -10.75 9.195312 -10.644531 8.90625 -10.46875 C 8.625 -10.289062 8.320312 -10.0625 8 -9.78125 C 7.675781 -9.507812 7.347656 -9.226562 7.015625 -8.9375 L 4.4375 -6.625 L 8.625 -1.140625 C 8.800781 -0.910156 9.007812 -0.71875 9.25 -0.5625 C 9.488281 -0.40625 9.765625 -0.316406 10.078125 -0.296875 L 10.078125 0 L 5.8125 0 L 5.8125 -0.296875 C 5.925781 -0.296875 6.050781 -0.320312 6.1875 -0.375 C 6.257812 -0.414062 6.320312 -0.472656 6.375 -0.546875 C 6.4375 -0.617188 6.46875 -0.707031 6.46875 -0.8125 C 6.46875 -0.9375 6.445312 -1.03125 6.40625 -1.09375 C 6.382812 -1.132812 6.363281 -1.171875 6.34375 -1.203125 C 6.3125 -1.242188 6.285156 -1.273438 6.265625 -1.296875 L 3.140625 -5.4375 L 2.875 -5.171875 L 2.875 -1.21875 C 2.875 -0.882812 2.96875 -0.648438 3.15625 -0.515625 C 3.351562 -0.378906 3.582031 -0.304688 3.84375 -0.296875 Z M 3.84375 0 "/></g></g></g><g fill="#000000" fill-opacity="1"><g transform="translate(52.013899, 19.29001)"><g><path d="M 0.421875 -5.609375 C 0.421875 -6.367188 0.515625 -7.085938 0.703125 -7.765625 C 0.890625 -8.441406 1.175781 -9.039062 1.5625 -9.5625 C 1.957031 -10.082031 2.445312 -10.492188 3.03125 -10.796875 C 3.625 -11.097656 4.328125 -11.25 5.140625 -11.25 C 6.222656 -11.25 7.109375 -10.992188 7.796875 -10.484375 C 8.484375 -9.972656 8.992188 -9.289062 9.328125 -8.4375 C 9.671875 -7.59375 9.84375 -6.664062 9.84375 -5.65625 C 9.84375 -4.90625 9.75 -4.175781 9.5625 -3.46875 C 9.375 -2.769531 9.082031 -2.144531 8.6875 -1.59375 C 8.300781 -1.050781 7.8125 -0.617188 7.21875 -0.296875 C 6.632812 0.015625 5.929688 0.171875 5.109375 0.171875 C 4.296875 0.171875 3.59375 0.015625 3 -0.296875 C 2.414062 -0.609375 1.929688 -1.035156 1.546875 -1.578125 C 1.160156 -2.117188 0.875 -2.734375 0.6875 -3.421875 C 0.507812 -4.117188 0.421875 -4.847656 0.421875 -5.609375 Z M 2.28125 -5.578125 C 2.28125 -5.253906 2.296875 -4.859375 2.328125 -4.390625 C 2.367188 -3.921875 2.441406 -3.4375 2.546875 -2.9375 C 2.660156 -2.445312 2.816406 -1.984375 3.015625 -1.546875 C 3.222656 -1.117188 3.5 -0.769531 3.84375 -0.5 C 4.1875 -0.238281 4.613281 -0.109375 5.125 -0.109375 C 5.632812 -0.109375 6.0625 -0.238281 6.40625 -0.5 C 6.75 -0.769531 7.023438 -1.117188 7.234375 -1.546875 C 7.441406 -1.984375 7.597656 -2.453125 7.703125 -2.953125 C 7.816406 -3.453125 7.890625 -3.9375 7.921875 -4.40625 C 7.953125 -4.875 7.96875 -5.273438 7.96875 -5.609375 C 7.96875 -5.929688 7.953125 -6.320312 7.921875 -6.78125 C 7.890625 -7.25 7.816406 -7.726562 7.703125 -8.21875 C 7.597656 -8.707031 7.441406 -9.160156 7.234375 -9.578125 C 7.035156 -10.003906 6.765625 -10.347656 6.421875 -10.609375 C 6.078125 -10.867188 5.648438 -11 5.140625 -11 C 4.628906 -11 4.203125 -10.867188 3.859375 -10.609375 C 3.515625 -10.347656 3.238281 -10.003906 3.03125 -9.578125 C 2.820312 -9.160156 2.660156 -8.707031 2.546875 -8.21875 C 2.441406 -7.726562 2.367188 -7.25 2.328125 -6.78125 C 2.296875 -6.3125 2.28125 -5.910156 2.28125 -5.578125 Z M 2.28125 -5.578125 "/></g></g></g><g fill="#000000" fill-opacity="1"><g transform="translate(62.05641, 19.29001)"><g><path d="M -0.140625 2.609375 C -0.140625 2.304688 -0.0507812 2.039062 0.125 1.8125 C 0.300781 1.582031 0.53125 1.394531 0.8125 1.25 C 1.09375 1.101562 1.375 1 1.65625 0.9375 L 2.078125 0.859375 L 1.671875 0.703125 C 1.296875 0.566406 0.988281 0.378906 0.75 0.140625 C 0.519531 -0.0976562 0.40625 -0.425781 0.40625 -0.84375 C 0.40625 -1.132812 0.503906 -1.394531 0.703125 -1.625 C 0.898438 -1.851562 1.140625 -2.003906 1.421875 -2.078125 L 1.625 -2.15625 L 1.46875 -2.28125 C 1.113281 -2.601562 0.847656 -2.984375 0.671875 -3.421875 C 0.503906 -3.859375 0.421875 -4.316406 0.421875 -4.796875 C 0.421875 -5.460938 0.5625 -6.035156 0.84375 -6.515625 C 1.125 -6.992188 1.515625 -7.367188 2.015625 -7.640625 C 2.515625 -7.910156 3.082031 -8.046875 3.71875 -8.046875 C 4.21875 -8.046875 4.695312 -7.957031 5.15625 -7.78125 L 5.3125 -7.71875 L 5.3125 -7.890625 C 5.34375 -8.242188 5.421875 -8.585938 5.546875 -8.921875 C 5.679688 -9.265625 5.875 -9.550781 6.125 -9.78125 C 6.375 -10.007812 6.679688 -10.125 7.046875 -10.125 C 7.316406 -10.125 7.53125 -10.046875 7.6875 -9.890625 C 7.84375 -9.742188 7.921875 -9.539062 7.921875 -9.28125 C 7.921875 -9.039062 7.847656 -8.835938 7.703125 -8.671875 C 7.566406 -8.503906 7.378906 -8.421875 7.140625 -8.421875 C 7.097656 -8.421875 7.050781 -8.421875 7 -8.421875 C 6.945312 -8.429688 6.890625 -8.4375 6.828125 -8.4375 C 6.546875 -8.4375 6.304688 -8.351562 6.109375 -8.1875 C 5.921875 -8.03125 5.785156 -7.820312 5.703125 -7.5625 L 5.671875 -7.484375 L 5.734375 -7.421875 C 6.171875 -7.117188 6.484375 -6.734375 6.671875 -6.265625 C 6.867188 -5.804688 6.96875 -5.316406 6.96875 -4.796875 C 6.96875 -3.796875 6.671875 -3 6.078125 -2.40625 C 5.492188 -1.8125 4.707031 -1.515625 3.71875 -1.515625 C 3.394531 -1.515625 3.066406 -1.554688 2.734375 -1.640625 C 2.410156 -1.722656 2.109375 -1.847656 1.828125 -2.015625 L 1.78125 -2.046875 L 1.703125 -2.03125 C 1.617188 -1.988281 1.53125 -1.914062 1.4375 -1.8125 C 1.351562 -1.71875 1.3125 -1.601562 1.3125 -1.46875 C 1.3125 -1.363281 1.335938 -1.273438 1.390625 -1.203125 C 1.453125 -1.128906 1.523438 -1.0625 1.609375 -1 C 1.679688 -0.945312 1.769531 -0.898438 1.875 -0.859375 C 1.976562 -0.816406 2.082031 -0.78125 2.1875 -0.75 C 2.40625 -0.695312 2.617188 -0.65625 2.828125 -0.625 C 3.035156 -0.59375 3.191406 -0.566406 3.296875 -0.546875 C 3.453125 -0.523438 3.609375 -0.5 3.765625 -0.46875 C 3.929688 -0.445312 4.09375 -0.425781 4.25 -0.40625 C 4.570312 -0.363281 4.898438 -0.296875 5.234375 -0.203125 C 5.578125 -0.117188 5.894531 0 6.1875 0.15625 C 6.488281 0.3125 6.734375 0.519531 6.921875 0.78125 C 7.109375 1.039062 7.203125 1.375 7.203125 1.78125 C 7.203125 2.082031 7.125 2.375 6.96875 2.65625 C 6.820312 2.945312 6.632812 3.203125 6.40625 3.421875 C 6.132812 3.679688 5.800781 3.882812 5.40625 4.03125 C 5.007812 4.175781 4.597656 4.273438 4.171875 4.328125 C 3.753906 4.390625 3.351562 4.421875 2.96875 4.421875 C 2.675781 4.421875 2.347656 4.390625 1.984375 4.328125 C 1.628906 4.273438 1.289062 4.179688 0.96875 4.046875 C 0.644531 3.910156 0.378906 3.722656 0.171875 3.484375 C -0.0351562 3.253906 -0.140625 2.960938 -0.140625 2.609375 Z M 3.6875 -7.859375 C 3.34375 -7.859375 3.078125 -7.742188 2.890625 -7.515625 C 2.703125 -7.296875 2.566406 -7.019531 2.484375 -6.6875 C 2.398438 -6.351562 2.347656 -6.015625 2.328125 -5.671875 C 2.316406 -5.328125 2.3125 -5.035156 2.3125 -4.796875 C 2.3125 -4.554688 2.320312 -4.265625 2.34375 -3.921875 C 2.363281 -3.578125 2.414062 -3.234375 2.5 -2.890625 C 2.582031 -2.554688 2.71875 -2.273438 2.90625 -2.046875 C 3.101562 -1.816406 3.375 -1.703125 3.71875 -1.703125 C 4.0625 -1.703125 4.328125 -1.816406 4.515625 -2.046875 C 4.703125 -2.273438 4.835938 -2.554688 4.921875 -2.890625 C 5.015625 -3.234375 5.066406 -3.578125 5.078125 -3.921875 C 5.097656 -4.265625 5.109375 -4.554688 5.109375 -4.796875 C 5.109375 -5.035156 5.09375 -5.328125 5.0625 -5.671875 C 5.039062 -6.023438 4.988281 -6.363281 4.90625 -6.6875 C 4.820312 -7.019531 4.679688 -7.296875 4.484375 -7.515625 C 4.296875 -7.742188 4.03125 -7.859375 3.6875 -7.859375 Z M 2.375 0.953125 C 2.019531 1.078125 1.722656 1.289062 1.484375 1.59375 C 1.253906 1.894531 1.140625 2.242188 1.140625 2.640625 C 1.140625 3.035156 1.253906 3.335938 1.484375 3.546875 C 1.710938 3.765625 1.984375 3.921875 2.296875 4.015625 C 2.617188 4.109375 2.921875 4.15625 3.203125 4.15625 C 3.535156 4.15625 3.867188 4.097656 4.203125 3.984375 C 4.535156 3.867188 4.8125 3.6875 5.03125 3.4375 C 5.25 3.1875 5.359375 2.851562 5.359375 2.4375 C 5.359375 2.1875 5.285156 1.988281 5.140625 1.84375 C 5.003906 1.695312 4.828125 1.578125 4.609375 1.484375 C 4.398438 1.390625 4.195312 1.320312 4 1.28125 C 3.894531 1.257812 3.796875 1.234375 3.703125 1.203125 C 3.609375 1.179688 3.523438 1.164062 3.453125 1.15625 C 3.285156 1.125 3.117188 1.085938 2.953125 1.046875 C 2.785156 1.015625 2.613281 0.976562 2.4375 0.9375 L 2.40625 0.9375 Z M 2.375 0.953125 "/></g></g></g><g fill="#000000" fill-opacity="1"><g transform="translate(69.434582, 19.29001)"><g><path d="M 0.421875 -3.90625 C 0.421875 -4.644531 0.554688 -5.328125 0.828125 -5.953125 C 1.097656 -6.585938 1.492188 -7.09375 2.015625 -7.46875 C 2.535156 -7.851562 3.1875 -8.046875 3.96875 -8.046875 C 4.632812 -8.046875 5.203125 -7.894531 5.671875 -7.59375 C 6.148438 -7.289062 6.515625 -6.875 6.765625 -6.34375 C 7.015625 -5.820312 7.140625 -5.238281 7.140625 -4.59375 L 7.140625 -4.546875 L 2.265625 -4.546875 L 2.265625 -4.296875 C 2.265625 -3.929688 2.3125 -3.554688 2.40625 -3.171875 C 2.5 -2.785156 2.640625 -2.425781 2.828125 -2.09375 C 3.023438 -1.757812 3.28125 -1.484375 3.59375 -1.265625 C 3.90625 -1.054688 4.289062 -0.953125 4.75 -0.953125 C 5.164062 -0.953125 5.578125 -1.050781 5.984375 -1.25 C 6.390625 -1.445312 6.71875 -1.71875 6.96875 -2.0625 L 7.125 -1.96875 C 6.78125 -1.300781 6.382812 -0.773438 5.9375 -0.390625 C 5.488281 -0.015625 4.859375 0.171875 4.046875 0.171875 C 3.265625 0.171875 2.601562 -0.0078125 2.0625 -0.375 C 1.53125 -0.738281 1.125 -1.226562 0.84375 -1.84375 C 0.5625 -2.46875 0.421875 -3.15625 0.421875 -3.90625 Z M 2.3125 -4.9375 L 2.3125 -4.8125 L 5.3125 -4.8125 L 5.3125 -4.9375 C 5.300781 -5.144531 5.269531 -5.40625 5.21875 -5.71875 C 5.164062 -6.03125 5.082031 -6.34375 4.96875 -6.65625 C 4.863281 -6.976562 4.71875 -7.242188 4.53125 -7.453125 C 4.351562 -7.671875 4.132812 -7.78125 3.875 -7.78125 C 3.601562 -7.78125 3.375 -7.671875 3.1875 -7.453125 C 3 -7.242188 2.84375 -6.984375 2.71875 -6.671875 C 2.59375 -6.359375 2.5 -6.039062 2.4375 -5.71875 C 2.375 -5.40625 2.332031 -5.144531 2.3125 -4.9375 Z M 2.3125 -4.9375 "/></g></g></g><g fill="#000000" fill-opacity="1"><g transform="translate(77.017696, 19.29001)"><g><path d="M 0.140625 -7.015625 L 2.71875 -7.84375 L 2.71875 -6.796875 L 2.921875 -7.109375 C 3.179688 -7.472656 3.507812 -7.71875 3.90625 -7.84375 C 4.3125 -7.976562 4.722656 -8.046875 5.140625 -8.046875 C 5.878906 -8.046875 6.484375 -7.863281 6.953125 -7.5 C 7.421875 -7.144531 7.65625 -6.582031 7.65625 -5.8125 L 7.65625 -1.21875 C 7.65625 -0.90625 7.71875 -0.675781 7.84375 -0.53125 C 7.96875 -0.382812 8.171875 -0.304688 8.453125 -0.296875 L 8.453125 0 L 5.078125 0 L 5.078125 -0.296875 C 5.617188 -0.304688 5.890625 -0.613281 5.890625 -1.21875 L 5.890625 -5.765625 C 5.890625 -6.066406 5.832031 -6.351562 5.71875 -6.625 C 5.613281 -6.90625 5.453125 -7.140625 5.234375 -7.328125 C 5.023438 -7.515625 4.742188 -7.609375 4.390625 -7.609375 C 4.085938 -7.609375 3.804688 -7.507812 3.546875 -7.3125 C 3.296875 -7.125 3.09375 -6.890625 2.9375 -6.609375 C 2.789062 -6.328125 2.71875 -6.046875 2.71875 -5.765625 L 2.71875 -1.21875 C 2.71875 -0.613281 2.984375 -0.304688 3.515625 -0.296875 L 3.515625 0 L 0.140625 0 L 0.140625 -0.296875 C 0.679688 -0.304688 0.953125 -0.613281 0.953125 -1.21875 L 0.953125 -5.765625 C 0.953125 -6.359375 0.679688 -6.675781 0.140625 -6.71875 Z M 0.140625 -7.015625 "/></g></g></g><g fill="#8a47ce" fill-opacity="1"><g transform="translate(85.497502, 19.29001)"><g><path d="M 0.1875 -7.015625 L 2.765625 -7.84375 L 2.765625 -1.21875 C 2.765625 -0.613281 3.03125 -0.304688 3.5625 -0.296875 L 3.5625 0 L 0.1875 0 L 0.1875 -0.296875 C 0.726562 -0.304688 1 -0.613281 1 -1.21875 L 1 -5.765625 C 1 -6.359375 0.726562 -6.675781 0.1875 -6.71875 Z M 0.421875 -9.90625 C 0.421875 -10.226562 0.535156 -10.5 0.765625 -10.71875 C 0.992188 -10.945312 1.269531 -11.0625 1.59375 -11.0625 C 1.90625 -11.0625 2.175781 -10.945312 2.40625 -10.71875 C 2.644531 -10.5 2.765625 -10.226562 2.765625 -9.90625 C 2.765625 -9.582031 2.644531 -9.300781 2.40625 -9.0625 C 2.164062 -8.820312 1.894531 -8.703125 1.59375 -8.703125 C 1.269531 -8.703125 0.992188 -8.820312 0.765625 -9.0625 C 0.535156 -9.300781 0.421875 -9.582031 0.421875 -9.90625 Z M 0.421875 -9.90625 "/></g></g></g><g fill="#000000" fill-opacity="1"><g transform="translate(89.160556, 19.29001)"><g><path d="M 0.421875 -3.90625 C 0.421875 -4.644531 0.554688 -5.328125 0.828125 -5.953125 C 1.097656 -6.585938 1.492188 -7.09375 2.015625 -7.46875 C 2.535156 -7.851562 3.1875 -8.046875 3.96875 -8.046875 C 4.632812 -8.046875 5.203125 -7.894531 5.671875 -7.59375 C 6.148438 -7.289062 6.515625 -6.875 6.765625 -6.34375 C 7.015625 -5.820312 7.140625 -5.238281 7.140625 -4.59375 L 7.140625 -4.546875 L 2.265625 -4.546875 L 2.265625 -4.296875 C 2.265625 -3.929688 2.3125 -3.554688 2.40625 -3.171875 C 2.5 -2.785156 2.640625 -2.425781 2.828125 -2.09375 C 3.023438 -1.757812 3.28125 -1.484375 3.59375 -1.265625 C 3.90625 -1.054688 4.289062 -0.953125 4.75 -0.953125 C 5.164062 -0.953125 5.578125 -1.050781 5.984375 -1.25 C 6.390625 -1.445312 6.71875 -1.71875 6.96875 -2.0625 L 7.125 -1.96875 C 6.78125 -1.300781 6.382812 -0.773438 5.9375 -0.390625 C 5.488281 -0.015625 4.859375 0.171875 4.046875 0.171875 C 3.265625 0.171875 2.601562 -0.0078125 2.0625 -0.375 C 1.53125 -0.738281 1.125 -1.226562 0.84375 -1.84375 C 0.5625 -2.46875 0.421875 -3.15625 0.421875 -3.90625 Z M 2.3125 -4.9375 L 2.3125 -4.8125 L 5.3125 -4.8125 L 5.3125 -4.9375 C 5.300781 -5.144531 5.269531 -5.40625 5.21875 -5.71875 C 5.164062 -6.03125 5.082031 -6.34375 4.96875 -6.65625 C 4.863281 -6.976562 4.71875 -7.242188 4.53125 -7.453125 C 4.351562 -7.671875 4.132812 -7.78125 3.875 -7.78125 C 3.601562 -7.78125 3.375 -7.671875 3.1875 -7.453125 C 3 -7.242188 2.84375 -6.984375 2.71875 -6.671875 C 2.59375 -6.359375 2.5 -6.039062 2.4375 -5.71875 C 2.375 -5.40625 2.332031 -5.144531 2.3125 -4.9375 Z M 2.3125 -4.9375 "/></g></g></g><g clip-path="url(#704758241a)"><path fill="#8a47ce" d="M 38.75 9.632812 C 38.503906 9.601562 38.261719 9.582031 38.015625 9.570312 C 37.773438 9.558594 37.53125 9.558594 37.285156 9.570312 C 37.042969 9.578125 36.804688 9.597656 36.5625 9.625 C 35.605469 9.734375 34.679688 9.96875 33.78125 10.25 C 32.886719 10.535156 32.019531 10.867188 31.160156 11.199219 L 30.519531 11.449219 C 30.304688 11.53125 30.09375 11.609375 29.878906 11.691406 C 29.453125 11.851562 29.023438 12.003906 28.59375 12.148438 C 28.164062 12.296875 27.730469 12.433594 27.296875 12.566406 C 26.863281 12.695312 26.425781 12.816406 25.988281 12.925781 C 25.113281 13.144531 24.226562 13.320312 23.335938 13.433594 C 23.222656 13.449219 23.113281 13.460938 23 13.472656 C 22.890625 13.488281 22.78125 13.496094 22.667969 13.507812 L 22.453125 13.527344 L 22.414062 13.527344 L 22.332031 13.535156 L 22.164062 13.546875 L 21.996094 13.554688 C 21.546875 13.582031 21.101562 13.585938 20.652344 13.570312 C 20.207031 13.558594 19.761719 13.523438 19.316406 13.472656 C 19.207031 13.457031 19.09375 13.445312 18.984375 13.425781 L 18.820312 13.402344 L 18.570312 13.363281 L 18.324219 13.316406 L 18.160156 13.28125 C 18.105469 13.273438 18.050781 13.261719 17.996094 13.246094 L 17.835938 13.210938 L 17.671875 13.171875 C 17.5625 13.144531 17.457031 13.117188 17.347656 13.085938 C 17.132812 13.027344 16.921875 12.964844 16.710938 12.890625 C 16.289062 12.75 15.875 12.582031 15.472656 12.394531 C 15.421875 12.371094 15.375 12.347656 15.324219 12.320312 C 15.273438 12.296875 15.222656 12.273438 15.175781 12.246094 L 15.027344 12.167969 C 15.003906 12.15625 14.976562 12.144531 14.953125 12.128906 L 14.882812 12.089844 L 14.738281 12.011719 L 14.589844 11.921875 L 14.515625 11.878906 L 14.449219 11.835938 C 14.402344 11.808594 14.355469 11.777344 14.308594 11.75 C 13.929688 11.507812 13.558594 11.242188 13.179688 10.980469 C 12.988281 10.847656 12.792969 10.71875 12.59375 10.589844 L 12.445312 10.496094 L 12.292969 10.40625 L 12.136719 10.3125 C 12.109375 10.296875 12.082031 10.285156 12.058594 10.269531 L 11.984375 10.230469 C 11.554688 9.992188 11.085938 9.816406 10.601562 9.726562 C 10.113281 9.632812 9.605469 9.632812 9.121094 9.726562 C 9.089844 9.734375 9.0625 9.738281 9.03125 9.746094 L 8.9375 9.765625 L 8.855469 9.785156 L 8.828125 9.792969 L 8.804688 9.800781 C 8.792969 9.804688 8.777344 9.808594 8.761719 9.8125 C 8.640625 9.847656 8.523438 9.890625 8.40625 9.9375 C 8.175781 10.035156 7.957031 10.160156 7.757812 10.308594 C 7.554688 10.453125 7.371094 10.621094 7.207031 10.8125 C 7.046875 11 6.902344 11.207031 6.789062 11.425781 C 6.675781 11.648438 6.589844 11.886719 6.539062 12.132812 C 6.488281 12.375 6.46875 12.628906 6.492188 12.878906 C 6.535156 13.375 6.71875 13.847656 6.996094 14.25 C 7.277344 14.648438 7.644531 14.980469 8.066406 15.214844 C 8.488281 15.449219 8.964844 15.585938 9.449219 15.585938 L 9.511719 15.585938 L 9.535156 15.582031 C 9.566406 15.582031 9.597656 15.582031 9.625 15.578125 C 9.6875 15.574219 9.746094 15.566406 9.804688 15.558594 C 9.921875 15.542969 10.039062 15.519531 10.15625 15.488281 C 10.386719 15.421875 10.605469 15.332031 10.808594 15.214844 C 11.015625 15.097656 11.207031 14.957031 11.378906 14.796875 C 11.550781 14.636719 11.703125 14.460938 11.835938 14.265625 C 11.964844 14.074219 12.074219 13.867188 12.15625 13.648438 C 12.234375 13.429688 12.285156 13.203125 12.304688 12.976562 C 12.238281 13.429688 12.042969 13.859375 11.769531 14.21875 C 11.492188 14.578125 11.136719 14.875 10.734375 15.074219 C 10.335938 15.277344 9.890625 15.378906 9.449219 15.359375 C 9.398438 15.355469 9.34375 15.351562 9.289062 15.34375 C 9.234375 15.335938 9.179688 15.328125 9.125 15.320312 C 9.015625 15.300781 8.910156 15.273438 8.808594 15.238281 C 8.597656 15.171875 8.398438 15.078125 8.210938 14.964844 C 8.027344 14.847656 7.855469 14.710938 7.699219 14.558594 C 7.542969 14.40625 7.40625 14.238281 7.289062 14.054688 C 7.058594 13.691406 6.917969 13.269531 6.898438 12.851562 C 6.890625 12.640625 6.910156 12.429688 6.960938 12.226562 C 7.011719 12.023438 7.09375 11.828125 7.195312 11.644531 C 7.402344 11.277344 7.703125 10.960938 8.050781 10.722656 C 8.222656 10.605469 8.410156 10.507812 8.605469 10.433594 C 8.703125 10.394531 8.804688 10.363281 8.90625 10.335938 C 8.917969 10.332031 8.929688 10.332031 8.941406 10.328125 L 8.960938 10.324219 L 8.976562 10.320312 L 9.0625 10.300781 L 9.136719 10.289062 C 9.164062 10.28125 9.191406 10.277344 9.21875 10.273438 C 9.636719 10.210938 10.066406 10.222656 10.480469 10.316406 C 10.894531 10.40625 11.296875 10.570312 11.667969 10.789062 L 11.742188 10.832031 C 11.765625 10.84375 11.789062 10.859375 11.8125 10.875 L 11.953125 10.960938 L 12.09375 11.050781 L 12.230469 11.144531 C 12.417969 11.269531 12.601562 11.402344 12.785156 11.535156 C 13.152344 11.804688 13.523438 12.082031 13.914062 12.347656 C 13.964844 12.378906 14.015625 12.410156 14.0625 12.445312 L 14.140625 12.496094 L 14.214844 12.542969 L 14.359375 12.632812 L 14.515625 12.726562 L 14.59375 12.769531 C 14.621094 12.785156 14.648438 12.800781 14.671875 12.816406 L 14.828125 12.902344 C 14.878906 12.929688 14.933594 12.957031 14.984375 12.984375 C 15.039062 13.011719 15.089844 13.039062 15.144531 13.066406 L 15.304688 13.144531 C 15.355469 13.171875 15.410156 13.195312 15.464844 13.222656 C 15.574219 13.273438 15.683594 13.320312 15.789062 13.367188 C 16.007812 13.460938 16.230469 13.550781 16.453125 13.628906 C 16.675781 13.710938 16.902344 13.785156 17.128906 13.851562 C 17.242188 13.886719 17.355469 13.917969 17.46875 13.949219 L 17.640625 13.996094 L 17.8125 14.039062 C 17.871094 14.050781 17.929688 14.066406 17.988281 14.078125 L 18.160156 14.117188 L 18.335938 14.152344 L 18.421875 14.171875 L 18.507812 14.1875 L 18.859375 14.25 C 18.976562 14.269531 19.09375 14.285156 19.207031 14.300781 C 19.675781 14.367188 20.148438 14.410156 20.621094 14.433594 C 20.738281 14.4375 20.855469 14.441406 20.972656 14.445312 L 21.152344 14.449219 L 21.328125 14.449219 C 21.445312 14.453125 21.5625 14.449219 21.679688 14.449219 C 21.800781 14.445312 21.917969 14.445312 22.035156 14.441406 L 22.210938 14.433594 L 22.386719 14.421875 L 22.476562 14.417969 L 22.566406 14.410156 L 22.738281 14.398438 C 22.855469 14.390625 22.976562 14.378906 23.09375 14.371094 C 23.210938 14.359375 23.328125 14.347656 23.445312 14.332031 C 24.378906 14.226562 25.300781 14.054688 26.210938 13.839844 C 27.121094 13.621094 28.019531 13.359375 28.902344 13.066406 C 29.34375 12.921875 29.78125 12.765625 30.214844 12.609375 C 30.433594 12.527344 30.652344 12.449219 30.867188 12.367188 L 31.515625 12.121094 C 32.371094 11.792969 33.222656 11.472656 34.082031 11.203125 C 34.402344 11.105469 34.722656 11.011719 35.042969 10.929688 C 34.820312 11.058594 34.605469 11.191406 34.394531 11.332031 C 34.03125 11.570312 33.683594 11.828125 33.34375 12.09375 C 33.261719 12.160156 33.175781 12.226562 33.09375 12.292969 L 32.96875 12.398438 L 32.847656 12.5 C 32.769531 12.566406 32.683594 12.636719 32.605469 12.703125 L 32.363281 12.914062 C 31.726562 13.46875 31.113281 14.035156 30.492188 14.582031 C 29.867188 15.128906 29.238281 15.652344 28.570312 16.113281 C 28.40625 16.230469 28.238281 16.34375 28.066406 16.449219 C 28.023438 16.476562 27.980469 16.503906 27.9375 16.53125 L 27.808594 16.609375 C 27.722656 16.664062 27.628906 16.71875 27.542969 16.769531 C 27.367188 16.871094 27.1875 16.972656 27.007812 17.074219 C 26.828125 17.171875 26.648438 17.273438 26.46875 17.367188 C 25.742188 17.742188 24.996094 18.066406 24.226562 18.292969 C 23.457031 18.523438 22.664062 18.648438 21.863281 18.65625 C 21.816406 18.65625 21.765625 18.65625 21.714844 18.65625 C 21.664062 18.652344 21.613281 18.652344 21.566406 18.652344 L 21.414062 18.644531 L 21.265625 18.636719 L 21.117188 18.625 L 20.890625 18.605469 L 20.871094 18.601562 C 20.871094 18.601562 20.863281 18.601562 20.867188 18.601562 L 20.855469 18.601562 L 20.820312 18.597656 C 20.765625 18.589844 20.710938 18.582031 20.667969 18.574219 C 20.570312 18.5625 20.472656 18.546875 20.375 18.527344 C 20.324219 18.519531 20.277344 18.507812 20.226562 18.5 C 20.179688 18.488281 20.132812 18.476562 20.082031 18.464844 C 19.890625 18.421875 19.699219 18.367188 19.507812 18.304688 C 19.132812 18.183594 18.765625 18.023438 18.417969 17.832031 C 18.066406 17.640625 17.734375 17.417969 17.417969 17.167969 C 17.101562 16.921875 16.804688 16.648438 16.519531 16.355469 C 16.234375 16.0625 15.960938 15.753906 15.699219 15.4375 C 15.4375 15.117188 15.1875 14.789062 14.9375 14.457031 L 14.558594 13.957031 L 14.464844 13.832031 C 14.433594 13.789062 14.402344 13.75 14.371094 13.707031 C 14.3125 13.625 14.253906 13.542969 14.191406 13.457031 C 13.953125 13.117188 13.714844 12.769531 13.453125 12.429688 C 13.417969 12.390625 13.386719 12.347656 13.351562 12.304688 C 13.320312 12.265625 13.285156 12.222656 13.25 12.179688 L 13.222656 12.152344 L 13.195312 12.121094 L 13.144531 12.058594 C 13.105469 12.019531 13.070312 11.980469 13.03125 11.9375 C 12.882812 11.78125 12.722656 11.632812 12.554688 11.496094 C 12.210938 11.222656 11.820312 11 11.382812 10.882812 C 11.359375 10.878906 11.335938 10.871094 11.304688 10.867188 L 11.261719 10.855469 L 11.21875 10.847656 C 11.164062 10.835938 11.109375 10.828125 11.054688 10.824219 C 10.941406 10.8125 10.832031 10.808594 10.71875 10.808594 C 10.496094 10.816406 10.273438 10.855469 10.0625 10.929688 C 9.851562 11.003906 9.648438 11.117188 9.480469 11.261719 C 9.394531 11.335938 9.316406 11.417969 9.25 11.511719 C 9.179688 11.601562 9.125 11.703125 9.082031 11.804688 C 8.996094 12.011719 8.953125 12.238281 8.960938 12.457031 C 8.96875 12.679688 9.023438 12.902344 9.136719 13.09375 C 9.191406 13.191406 9.261719 13.28125 9.339844 13.355469 C 9.382812 13.394531 9.425781 13.429688 9.46875 13.460938 C 9.519531 13.492188 9.566406 13.519531 9.617188 13.542969 C 9.824219 13.628906 10.050781 13.640625 10.261719 13.597656 C 10.472656 13.554688 10.671875 13.453125 10.824219 13.304688 C 10.902344 13.230469 10.96875 13.144531 11.011719 13.046875 C 11.054688 12.953125 11.078125 12.847656 11.082031 12.742188 C 11.074219 12.847656 11.042969 12.949219 10.992188 13.039062 C 10.945312 13.128906 10.878906 13.210938 10.800781 13.277344 C 10.644531 13.410156 10.449219 13.492188 10.25 13.523438 C 10.046875 13.550781 9.839844 13.527344 9.664062 13.441406 C 9.621094 13.417969 9.578125 13.394531 9.542969 13.363281 C 9.5 13.332031 9.464844 13.300781 9.429688 13.265625 C 9.363281 13.195312 9.308594 13.113281 9.265625 13.027344 C 9.175781 12.851562 9.136719 12.652344 9.140625 12.457031 C 9.144531 12.261719 9.1875 12.066406 9.273438 11.890625 C 9.316406 11.804688 9.367188 11.722656 9.425781 11.648438 C 9.488281 11.574219 9.558594 11.507812 9.632812 11.449219 C 9.785156 11.328125 9.960938 11.242188 10.144531 11.1875 C 10.332031 11.132812 10.527344 11.105469 10.722656 11.109375 C 10.820312 11.109375 10.917969 11.117188 11.011719 11.132812 C 11.0625 11.140625 11.109375 11.148438 11.15625 11.160156 L 11.191406 11.167969 L 11.226562 11.179688 C 11.246094 11.183594 11.273438 11.191406 11.296875 11.199219 L 11.304688 11.203125 C 11.3125 11.203125 11.308594 11.203125 11.3125 11.203125 L 11.332031 11.210938 L 11.367188 11.222656 L 11.433594 11.246094 C 11.480469 11.265625 11.523438 11.28125 11.570312 11.300781 C 11.660156 11.34375 11.746094 11.386719 11.832031 11.4375 C 12 11.539062 12.160156 11.65625 12.3125 11.785156 C 12.460938 11.917969 12.601562 12.0625 12.734375 12.210938 C 12.765625 12.25 12.800781 12.289062 12.832031 12.328125 L 12.878906 12.386719 L 12.890625 12.402344 L 12.902344 12.414062 L 12.925781 12.445312 C 12.957031 12.484375 12.988281 12.527344 13.019531 12.566406 C 13.050781 12.605469 13.078125 12.648438 13.109375 12.6875 C 13.347656 13.019531 13.566406 13.371094 13.796875 13.726562 C 13.855469 13.8125 13.914062 13.902344 13.976562 13.992188 C 14.003906 14.035156 14.035156 14.078125 14.066406 14.121094 L 14.515625 14.765625 C 14.757812 15.105469 15.003906 15.449219 15.265625 15.785156 C 15.523438 16.121094 15.796875 16.449219 16.085938 16.765625 C 16.378906 17.082031 16.6875 17.382812 17.023438 17.660156 C 17.355469 17.9375 17.710938 18.191406 18.089844 18.410156 C 18.46875 18.628906 18.871094 18.816406 19.285156 18.964844 C 19.492188 19.035156 19.703125 19.101562 19.914062 19.15625 C 19.96875 19.167969 20.019531 19.179688 20.074219 19.195312 C 20.128906 19.207031 20.179688 19.21875 20.234375 19.230469 C 20.34375 19.253906 20.449219 19.273438 20.558594 19.292969 C 20.617188 19.300781 20.664062 19.308594 20.71875 19.316406 L 20.757812 19.320312 L 20.78125 19.324219 L 20.800781 19.328125 L 20.882812 19.339844 L 21.042969 19.359375 L 21.289062 19.382812 L 21.371094 19.386719 L 21.53125 19.398438 C 21.585938 19.402344 21.640625 19.402344 21.695312 19.40625 C 21.75 19.40625 21.804688 19.410156 21.859375 19.410156 C 21.96875 19.410156 22.078125 19.414062 22.1875 19.410156 C 22.242188 19.410156 22.296875 19.410156 22.351562 19.40625 L 22.515625 19.398438 C 22.570312 19.394531 22.625 19.390625 22.679688 19.386719 C 22.734375 19.382812 22.789062 19.378906 22.84375 19.375 C 22.953125 19.363281 23.058594 19.351562 23.167969 19.335938 C 23.386719 19.308594 23.601562 19.269531 23.8125 19.226562 C 23.921875 19.207031 24.027344 19.183594 24.132812 19.15625 C 24.238281 19.132812 24.34375 19.105469 24.449219 19.078125 C 25.289062 18.847656 26.089844 18.515625 26.855469 18.136719 C 27.050781 18.039062 27.238281 17.941406 27.425781 17.84375 C 27.613281 17.742188 27.800781 17.640625 27.984375 17.535156 C 28.078125 17.480469 28.167969 17.429688 28.257812 17.378906 L 28.402344 17.292969 C 28.445312 17.265625 28.492188 17.238281 28.539062 17.210938 C 28.722656 17.097656 28.90625 16.980469 29.082031 16.859375 C 29.796875 16.378906 30.460938 15.835938 31.105469 15.289062 C 31.746094 14.738281 32.363281 14.179688 32.992188 13.640625 L 33.230469 13.441406 L 33.464844 13.242188 L 33.585938 13.144531 L 33.703125 13.046875 C 33.785156 12.984375 33.863281 12.921875 33.945312 12.859375 C 34.265625 12.609375 34.59375 12.375 34.929688 12.152344 C 35.605469 11.714844 36.316406 11.339844 37.058594 11.085938 C 37.429688 10.960938 37.804688 10.863281 38.1875 10.804688 C 38.566406 10.75 38.953125 10.730469 39.332031 10.753906 L 39.476562 9.761719 C 39.234375 9.707031 38.992188 9.664062 38.75 9.632812 " fill-opacity="1" fill-rule="nonzero"/></g><path fill="#8a47ce" d="M 15.550781 11.734375 C 15.5625 11.738281 15.574219 11.742188 15.589844 11.746094 C 15.605469 11.75 15.617188 11.753906 15.632812 11.753906 C 15.648438 11.757812 15.664062 11.761719 15.683594 11.765625 C 15.699219 11.769531 15.71875 11.773438 15.734375 11.773438 C 15.808594 11.789062 15.894531 11.796875 15.992188 11.804688 C 16.1875 11.816406 16.425781 11.808594 16.699219 11.765625 C 16.96875 11.722656 17.265625 11.644531 17.582031 11.527344 C 17.894531 11.414062 18.222656 11.265625 18.554688 11.101562 C 18.886719 10.9375 19.226562 10.757812 19.574219 10.578125 C 19.921875 10.402344 20.28125 10.226562 20.644531 10.078125 C 20.824219 10.003906 21.007812 9.941406 21.1875 9.886719 L 21.253906 9.867188 L 21.320312 9.851562 C 21.34375 9.84375 21.363281 9.839844 21.382812 9.835938 L 21.410156 9.828125 C 21.417969 9.828125 21.421875 9.828125 21.429688 9.828125 L 21.449219 9.824219 C 21.539062 9.804688 21.632812 9.789062 21.722656 9.78125 C 22.089844 9.738281 22.449219 9.757812 22.8125 9.835938 C 23.175781 9.914062 23.539062 10.042969 23.902344 10.183594 C 23.945312 10.203125 23.992188 10.222656 24.035156 10.238281 C 24.078125 10.253906 24.117188 10.269531 24.160156 10.289062 C 24.199219 10.308594 24.242188 10.324219 24.28125 10.34375 C 24.320312 10.363281 24.363281 10.382812 24.402344 10.402344 C 24.421875 10.410156 24.441406 10.421875 24.460938 10.429688 C 24.480469 10.441406 24.5 10.453125 24.519531 10.460938 C 24.558594 10.480469 24.597656 10.503906 24.636719 10.523438 C 24.714844 10.566406 24.789062 10.609375 24.867188 10.65625 C 25.164062 10.832031 25.449219 11.023438 25.71875 11.199219 C 25.984375 11.375 26.238281 11.535156 26.46875 11.667969 C 26.699219 11.800781 26.910156 11.902344 27.089844 11.976562 C 27.132812 11.996094 27.175781 12.011719 27.214844 12.027344 C 27.253906 12.042969 27.292969 12.054688 27.328125 12.066406 C 27.394531 12.09375 27.457031 12.109375 27.507812 12.125 C 27.554688 12.140625 27.59375 12.148438 27.617188 12.15625 C 27.644531 12.160156 27.65625 12.164062 27.65625 12.164062 C 27.65625 12.164062 27.613281 12.132812 27.53125 12.074219 C 27.492188 12.042969 27.441406 12.007812 27.386719 11.960938 C 27.371094 11.949219 27.355469 11.9375 27.339844 11.925781 C 27.324219 11.914062 27.308594 11.902344 27.292969 11.886719 C 27.261719 11.863281 27.226562 11.835938 27.191406 11.804688 C 27.050781 11.683594 26.882812 11.535156 26.699219 11.359375 C 26.515625 11.179688 26.308594 10.972656 26.082031 10.75 C 25.851562 10.523438 25.597656 10.277344 25.296875 10.039062 C 25.222656 9.976562 25.148438 9.917969 25.066406 9.859375 C 25.027344 9.828125 24.984375 9.796875 24.941406 9.769531 C 24.921875 9.753906 24.902344 9.742188 24.878906 9.726562 C 24.859375 9.710938 24.835938 9.699219 24.816406 9.683594 C 24.726562 9.625 24.636719 9.570312 24.542969 9.519531 C 24.496094 9.492188 24.449219 9.46875 24.402344 9.441406 C 24.378906 9.429688 24.355469 9.417969 24.332031 9.40625 C 24.308594 9.394531 24.289062 9.382812 24.265625 9.371094 C 24.082031 9.28125 23.890625 9.191406 23.6875 9.105469 C 23.582031 9.0625 23.480469 9.023438 23.371094 8.988281 C 23.265625 8.949219 23.152344 8.917969 23.039062 8.886719 C 22.925781 8.855469 22.8125 8.832031 22.695312 8.8125 C 22.574219 8.792969 22.457031 8.777344 22.335938 8.769531 C 22.09375 8.75 21.847656 8.753906 21.609375 8.78125 C 21.488281 8.796875 21.367188 8.8125 21.25 8.839844 L 21.230469 8.84375 C 21.226562 8.84375 21.21875 8.84375 21.210938 8.847656 L 21.164062 8.859375 C 21.132812 8.867188 21.097656 8.875 21.070312 8.882812 L 20.984375 8.90625 L 20.898438 8.933594 C 20.671875 9.003906 20.457031 9.089844 20.253906 9.183594 C 19.847656 9.371094 19.480469 9.585938 19.132812 9.800781 C 18.789062 10.019531 18.46875 10.242188 18.171875 10.449219 C 17.871094 10.65625 17.59375 10.84375 17.332031 11.003906 C 17.066406 11.160156 16.820312 11.292969 16.589844 11.394531 C 16.363281 11.492188 16.152344 11.558594 15.976562 11.601562 C 15.886719 11.625 15.808594 11.640625 15.738281 11.652344 C 15.71875 11.65625 15.703125 11.660156 15.683594 11.660156 C 15.667969 11.664062 15.652344 11.664062 15.636719 11.667969 C 15.621094 11.667969 15.609375 11.671875 15.59375 11.671875 C 15.582031 11.675781 15.566406 11.675781 15.554688 11.675781 C 15.503906 11.683594 15.464844 11.6875 15.441406 11.6875 C 15.414062 11.691406 15.402344 11.691406 15.402344 11.691406 C 15.402344 11.691406 15.414062 11.695312 15.4375 11.703125 C 15.464844 11.710938 15.5 11.722656 15.550781 11.734375 " fill-opacity="1" fill-rule="nonzero"/><g clip-path="url(#38a133a604)"><path fill="#8a47ce" d="M 20.710938 7.988281 L 20.714844 7.996094 L 20.714844 8 C 20.714844 8 20.714844 7.996094 20.714844 8.003906 C 20.714844 8.011719 20.714844 8.015625 20.71875 8.023438 C 20.71875 8.027344 20.71875 8.035156 20.722656 8.042969 C 20.722656 8.050781 20.722656 8.058594 20.726562 8.0625 C 20.726562 8.070312 20.730469 8.078125 20.730469 8.085938 C 20.730469 8.09375 20.734375 8.101562 20.734375 8.105469 C 20.738281 8.121094 20.742188 8.132812 20.746094 8.144531 C 20.761719 8.195312 20.777344 8.242188 20.792969 8.285156 C 20.828125 8.367188 20.867188 8.4375 20.90625 8.492188 C 20.917969 8.507812 20.925781 8.519531 20.933594 8.53125 C 20.941406 8.542969 20.953125 8.554688 20.960938 8.5625 C 20.96875 8.574219 20.976562 8.582031 20.984375 8.589844 C 20.992188 8.597656 21 8.605469 21.007812 8.609375 C 21.019531 8.621094 21.03125 8.628906 21.039062 8.636719 C 21.042969 8.640625 21.046875 8.644531 21.046875 8.644531 C 21.046875 8.644531 21.046875 8.640625 21.050781 8.628906 C 21.050781 8.621094 21.050781 8.609375 21.050781 8.589844 C 21.054688 8.574219 21.054688 8.554688 21.058594 8.53125 C 21.0625 8.507812 21.066406 8.484375 21.074219 8.453125 C 21.078125 8.425781 21.085938 8.394531 21.09375 8.359375 C 21.101562 8.328125 21.109375 8.292969 21.121094 8.253906 C 21.132812 8.21875 21.144531 8.175781 21.15625 8.136719 C 21.160156 8.128906 21.164062 8.117188 21.167969 8.109375 L 21.171875 8.09375 L 21.179688 8.082031 L 21.183594 8.070312 C 21.183594 8.0625 21.1875 8.058594 21.1875 8.050781 C 21.191406 8.046875 21.191406 8.039062 21.195312 8.035156 C 21.195312 8.039062 21.195312 8.035156 21.195312 8.035156 L 21.199219 8.03125 L 21.203125 8.023438 C 21.234375 7.957031 21.277344 7.898438 21.328125 7.851562 C 21.335938 7.84375 21.34375 7.839844 21.347656 7.835938 C 21.355469 7.828125 21.363281 7.824219 21.367188 7.816406 C 21.382812 7.808594 21.394531 7.796875 21.414062 7.785156 C 21.425781 7.777344 21.441406 7.769531 21.457031 7.757812 C 21.464844 7.753906 21.476562 7.75 21.484375 7.746094 C 21.492188 7.742188 21.5 7.734375 21.507812 7.734375 C 21.542969 7.714844 21.582031 7.699219 21.621094 7.6875 L 21.652344 7.675781 L 21.664062 7.671875 L 21.683594 7.667969 L 21.746094 7.652344 C 21.765625 7.644531 21.789062 7.640625 21.8125 7.636719 C 21.835938 7.632812 21.859375 7.628906 21.878906 7.625 C 21.925781 7.617188 21.972656 7.613281 22.023438 7.613281 L 22.058594 7.609375 C 22.070312 7.609375 22.082031 7.609375 22.09375 7.609375 C 22.117188 7.609375 22.140625 7.609375 22.164062 7.609375 C 22.210938 7.613281 22.257812 7.613281 22.300781 7.621094 C 22.34375 7.628906 22.386719 7.632812 22.429688 7.644531 L 22.453125 7.648438 C 22.460938 7.652344 22.46875 7.652344 22.476562 7.652344 C 22.492188 7.660156 22.507812 7.664062 22.519531 7.671875 L 22.53125 7.675781 L 22.535156 7.675781 C 22.546875 7.683594 22.523438 7.667969 22.527344 7.671875 L 22.542969 7.675781 C 22.605469 7.699219 22.671875 7.734375 22.734375 7.785156 C 22.800781 7.835938 22.859375 7.898438 22.914062 7.964844 C 22.925781 7.984375 22.9375 8 22.949219 8.015625 C 22.964844 8.035156 22.976562 8.050781 22.988281 8.066406 C 23.007812 8.101562 23.03125 8.136719 23.050781 8.167969 C 23.09375 8.234375 23.125 8.296875 23.152344 8.351562 C 23.160156 8.363281 23.164062 8.375 23.171875 8.390625 C 23.175781 8.402344 23.183594 8.414062 23.1875 8.421875 C 23.199219 8.445312 23.207031 8.464844 23.214844 8.480469 C 23.230469 8.511719 23.238281 8.527344 23.238281 8.527344 C 23.238281 8.527344 23.246094 8.511719 23.261719 8.480469 C 23.269531 8.464844 23.28125 8.445312 23.289062 8.421875 C 23.300781 8.398438 23.3125 8.371094 23.320312 8.339844 C 23.332031 8.3125 23.34375 8.277344 23.351562 8.238281 C 23.359375 8.199219 23.367188 8.15625 23.371094 8.113281 C 23.375 8.089844 23.378906 8.066406 23.378906 8.039062 C 23.382812 8.015625 23.382812 7.992188 23.382812 7.964844 C 23.382812 7.9375 23.382812 7.910156 23.378906 7.882812 C 23.378906 7.855469 23.375 7.824219 23.371094 7.796875 C 23.355469 7.679688 23.324219 7.546875 23.253906 7.414062 C 23.1875 7.28125 23.082031 7.144531 22.941406 7.039062 L 22.914062 7.019531 L 22.90625 7.011719 C 22.90625 7.011719 22.882812 7 22.894531 7.003906 L 22.890625 7.003906 L 22.878906 6.996094 C 22.867188 6.988281 22.855469 6.976562 22.839844 6.96875 C 22.824219 6.957031 22.800781 6.945312 22.777344 6.933594 C 22.769531 6.929688 22.757812 6.921875 22.746094 6.917969 L 22.71875 6.902344 C 22.699219 6.894531 22.679688 6.886719 22.660156 6.878906 C 22.636719 6.871094 22.617188 6.863281 22.597656 6.855469 C 22.578125 6.847656 22.558594 6.839844 22.539062 6.832031 C 22.519531 6.828125 22.496094 6.820312 22.476562 6.816406 C 22.457031 6.808594 22.4375 6.804688 22.414062 6.800781 C 22.394531 6.796875 22.375 6.792969 22.355469 6.789062 C 22.3125 6.777344 22.269531 6.773438 22.230469 6.769531 C 22.144531 6.761719 22.0625 6.757812 21.976562 6.761719 C 21.894531 6.769531 21.808594 6.777344 21.726562 6.796875 C 21.644531 6.8125 21.5625 6.835938 21.484375 6.867188 C 21.40625 6.898438 21.328125 6.9375 21.257812 6.980469 C 21.183594 7.023438 21.113281 7.074219 21.050781 7.132812 C 20.925781 7.25 20.824219 7.394531 20.765625 7.546875 C 20.710938 7.695312 20.695312 7.847656 20.710938 7.976562 L 20.710938 7.988281 " fill-opacity="1" fill-rule="nonzero"/></g><g clip-path="url(#1e251dbd9b)"><path fill="#8a47ce" d="M 26.445312 21.347656 L 26.445312 21.316406 C 26.441406 21.285156 26.441406 21.304688 26.441406 21.296875 L 26.441406 21.289062 L 26.433594 21.25 L 26.425781 21.214844 C 26.417969 21.195312 26.414062 21.179688 26.410156 21.160156 C 26.40625 21.144531 26.398438 21.125 26.394531 21.109375 C 26.390625 21.089844 26.382812 21.078125 26.378906 21.0625 C 26.367188 21.03125 26.355469 21.003906 26.339844 20.976562 C 26.328125 20.949219 26.316406 20.917969 26.300781 20.894531 C 26.285156 20.867188 26.269531 20.84375 26.253906 20.816406 C 26.1875 20.71875 26.117188 20.636719 26.042969 20.566406 C 26.007812 20.53125 25.96875 20.5 25.933594 20.464844 C 25.894531 20.4375 25.859375 20.40625 25.824219 20.378906 C 25.75 20.324219 25.679688 20.277344 25.613281 20.230469 C 25.472656 20.140625 25.347656 20.0625 25.234375 19.988281 C 25.117188 19.917969 25.015625 19.847656 24.929688 19.78125 C 24.84375 19.714844 24.769531 19.648438 24.710938 19.585938 C 24.671875 19.597656 24.632812 19.609375 24.59375 19.621094 C 24.597656 19.632812 24.605469 19.644531 24.609375 19.652344 C 24.652344 19.738281 24.710938 19.828125 24.785156 19.921875 C 24.859375 20.019531 24.949219 20.117188 25.046875 20.214844 C 25.144531 20.320312 25.257812 20.421875 25.367188 20.53125 C 25.421875 20.585938 25.476562 20.644531 25.53125 20.703125 C 25.558594 20.730469 25.582031 20.761719 25.605469 20.792969 C 25.632812 20.824219 25.65625 20.855469 25.675781 20.886719 C 25.71875 20.949219 25.761719 21.015625 25.789062 21.082031 C 25.792969 21.097656 25.800781 21.113281 25.808594 21.128906 C 25.8125 21.144531 25.816406 21.164062 25.824219 21.179688 C 25.828125 21.195312 25.828125 21.210938 25.832031 21.230469 C 25.835938 21.238281 25.835938 21.246094 25.835938 21.253906 C 25.835938 21.261719 25.839844 21.265625 25.839844 21.273438 C 25.839844 21.277344 25.839844 21.285156 25.839844 21.292969 C 25.839844 21.292969 25.839844 21.296875 25.839844 21.300781 L 25.839844 21.308594 L 25.84375 21.328125 L 25.84375 21.375 C 25.84375 21.367188 25.847656 21.390625 25.84375 21.363281 L 25.84375 21.378906 C 25.839844 21.394531 25.839844 21.410156 25.835938 21.425781 C 25.832031 21.445312 25.832031 21.460938 25.828125 21.476562 C 25.8125 21.539062 25.785156 21.605469 25.746094 21.667969 C 25.707031 21.730469 25.660156 21.789062 25.601562 21.847656 C 25.574219 21.875 25.542969 21.898438 25.511719 21.925781 C 25.496094 21.9375 25.476562 21.949219 25.460938 21.960938 C 25.445312 21.96875 25.433594 21.980469 25.417969 21.988281 L 25.382812 22.007812 L 25.363281 22.019531 L 25.359375 22.023438 C 25.359375 22.019531 25.347656 22.03125 25.363281 22.019531 L 25.355469 22.023438 C 25.335938 22.03125 25.316406 22.042969 25.296875 22.050781 C 25.277344 22.0625 25.257812 22.070312 25.234375 22.078125 L 25.171875 22.101562 C 25.082031 22.132812 24.992188 22.160156 24.890625 22.179688 C 24.792969 22.203125 24.6875 22.21875 24.574219 22.234375 C 24.546875 22.234375 24.519531 22.238281 24.492188 22.242188 C 24.464844 22.246094 24.4375 22.25 24.40625 22.253906 C 24.378906 22.253906 24.347656 22.257812 24.320312 22.261719 C 24.289062 22.261719 24.261719 22.265625 24.230469 22.269531 C 23.757812 22.3125 23.265625 22.339844 22.769531 22.347656 C 22.273438 22.351562 21.765625 22.335938 21.265625 22.296875 C 21.199219 22.292969 21.136719 22.285156 21.074219 22.28125 L 20.886719 22.265625 C 20.761719 22.25 20.636719 22.238281 20.511719 22.222656 C 20.386719 22.207031 20.261719 22.191406 20.136719 22.171875 C 20.078125 22.164062 20.015625 22.152344 19.953125 22.144531 C 19.890625 22.136719 19.832031 22.125 19.773438 22.117188 C 19.652344 22.097656 19.523438 22.070312 19.398438 22.050781 C 19.28125 22.027344 19.171875 22.003906 19.070312 21.976562 C 18.972656 21.953125 18.882812 21.921875 18.8125 21.882812 L 18.785156 21.871094 C 18.777344 21.867188 18.769531 21.863281 18.761719 21.855469 C 18.742188 21.847656 18.730469 21.839844 18.71875 21.828125 C 18.710938 21.824219 18.703125 21.820312 18.699219 21.816406 C 18.691406 21.808594 18.683594 21.804688 18.679688 21.800781 C 18.675781 21.796875 18.667969 21.792969 18.664062 21.785156 C 18.65625 21.78125 18.65625 21.78125 18.65625 21.777344 C 18.652344 21.777344 18.652344 21.777344 18.652344 21.777344 L 18.648438 21.777344 C 18.648438 21.777344 18.648438 21.773438 18.644531 21.773438 L 18.617188 21.734375 L 18.613281 21.726562 L 18.609375 21.722656 C 18.605469 21.71875 18.605469 21.714844 18.601562 21.710938 C 18.601562 21.707031 18.597656 21.703125 18.597656 21.699219 L 18.59375 21.691406 C 18.589844 21.6875 18.585938 21.679688 18.585938 21.675781 C 18.582031 21.667969 18.578125 21.664062 18.578125 21.65625 C 18.574219 21.648438 18.574219 21.644531 18.570312 21.636719 C 18.554688 21.585938 18.546875 21.515625 18.554688 21.441406 C 18.5625 21.367188 18.585938 21.285156 18.617188 21.207031 C 18.621094 21.1875 18.632812 21.164062 18.640625 21.144531 L 18.65625 21.117188 L 18.671875 21.085938 C 18.679688 21.066406 18.691406 21.046875 18.703125 21.027344 L 18.71875 21 L 18.726562 20.984375 L 18.734375 20.972656 L 18.75 20.945312 C 18.753906 20.9375 18.757812 20.933594 18.769531 20.917969 L 18.816406 20.855469 C 18.816406 20.855469 18.804688 20.867188 18.8125 20.859375 C 18.828125 20.839844 18.84375 20.820312 18.859375 20.804688 C 18.875 20.785156 18.890625 20.765625 18.90625 20.746094 C 18.96875 20.671875 19.039062 20.597656 19.113281 20.523438 C 19.253906 20.371094 19.40625 20.21875 19.542969 20.050781 C 19.574219 20.007812 19.609375 19.964844 19.640625 19.921875 L 19.710938 19.816406 C 19.714844 19.804688 19.722656 19.796875 19.726562 19.785156 C 19.535156 19.738281 19.347656 19.679688 19.160156 19.613281 C 19.148438 19.628906 19.132812 19.640625 19.117188 19.65625 C 19.050781 19.714844 18.980469 19.773438 18.902344 19.835938 C 18.824219 19.898438 18.742188 19.960938 18.660156 20.027344 C 18.574219 20.09375 18.488281 20.164062 18.398438 20.242188 C 18.375 20.265625 18.355469 20.285156 18.332031 20.304688 C 18.308594 20.328125 18.285156 20.347656 18.265625 20.371094 C 18.242188 20.394531 18.222656 20.414062 18.199219 20.4375 C 18.191406 20.445312 18.179688 20.464844 18.167969 20.476562 L 18.132812 20.519531 L 18.113281 20.539062 L 18.097656 20.558594 L 18.066406 20.601562 C 18.046875 20.628906 18.027344 20.65625 18.007812 20.6875 L 17.976562 20.730469 L 17.953125 20.773438 C 17.933594 20.804688 17.914062 20.835938 17.898438 20.867188 C 17.832031 20.996094 17.777344 21.136719 17.742188 21.292969 C 17.707031 21.453125 17.695312 21.628906 17.726562 21.8125 L 17.742188 21.878906 C 17.746094 21.902344 17.75 21.925781 17.761719 21.949219 L 17.78125 22.015625 L 17.792969 22.050781 C 17.800781 22.058594 17.804688 22.070312 17.808594 22.082031 L 17.839844 22.148438 L 17.855469 22.179688 L 17.902344 22.257812 C 17.902344 22.257812 17.902344 22.257812 17.90625 22.261719 L 17.914062 22.269531 L 17.925781 22.289062 L 17.949219 22.320312 C 17.984375 22.371094 18.015625 22.402344 18.046875 22.4375 C 18.0625 22.453125 18.078125 22.46875 18.097656 22.484375 C 18.113281 22.5 18.128906 22.519531 18.148438 22.53125 C 18.183594 22.558594 18.21875 22.589844 18.253906 22.613281 C 18.269531 22.625 18.289062 22.640625 18.308594 22.652344 L 18.363281 22.683594 C 18.378906 22.695312 18.398438 22.703125 18.417969 22.714844 L 18.472656 22.742188 C 18.507812 22.761719 18.542969 22.78125 18.582031 22.792969 L 18.632812 22.816406 L 18.6875 22.839844 C 18.722656 22.851562 18.757812 22.863281 18.796875 22.878906 C 18.9375 22.921875 19.070312 22.957031 19.203125 22.988281 C 19.328125 23.015625 19.449219 23.046875 19.585938 23.074219 C 19.652344 23.085938 19.71875 23.101562 19.785156 23.113281 C 19.851562 23.125 19.917969 23.136719 19.984375 23.148438 C 20.117188 23.171875 20.25 23.191406 20.382812 23.210938 C 20.449219 23.21875 20.515625 23.226562 20.582031 23.238281 C 20.648438 23.246094 20.714844 23.253906 20.78125 23.261719 L 20.984375 23.28125 C 21.050781 23.285156 21.121094 23.292969 21.1875 23.296875 C 21.726562 23.339844 22.265625 23.347656 22.800781 23.324219 C 23.332031 23.296875 23.851562 23.238281 24.347656 23.152344 C 24.378906 23.148438 24.410156 23.144531 24.441406 23.136719 L 24.535156 23.121094 C 24.566406 23.117188 24.597656 23.109375 24.628906 23.101562 C 24.660156 23.097656 24.691406 23.089844 24.726562 23.082031 C 24.851562 23.054688 24.980469 23.023438 25.109375 22.984375 C 25.238281 22.941406 25.363281 22.894531 25.488281 22.832031 L 25.582031 22.785156 C 25.613281 22.769531 25.640625 22.75 25.671875 22.730469 C 25.703125 22.714844 25.730469 22.695312 25.761719 22.675781 L 25.769531 22.667969 C 25.789062 22.65625 25.777344 22.664062 25.785156 22.660156 L 25.789062 22.65625 L 25.804688 22.644531 L 25.839844 22.617188 C 25.867188 22.59375 25.902344 22.566406 25.929688 22.542969 C 25.953125 22.519531 25.980469 22.496094 26.007812 22.472656 C 26.054688 22.421875 26.101562 22.367188 26.144531 22.3125 C 26.230469 22.203125 26.300781 22.085938 26.355469 21.957031 C 26.40625 21.828125 26.441406 21.691406 26.453125 21.554688 C 26.453125 21.519531 26.453125 21.484375 26.453125 21.449219 C 26.453125 21.414062 26.449219 21.382812 26.445312 21.347656 " fill-opacity="1" fill-rule="nonzero"/></g></svg>